<?xml version="1.0" encoding="UTF-8"?>
<svg width="16px" height="15px" viewBox="0 0 16 15" version="1.1" xmlns="http://www.w3.org/2000/svg" xmlns:xlink="http://www.w3.org/1999/xlink">
    <!-- Generator: Sketch 56.3 (81716) - https://sketch.com -->
    <title>jifang-2 2</title>
    <desc>Created with Sketch.</desc>
    <defs>
        <linearGradient x1="50%" y1="0%" x2="50%" y2="100%" id="linearGradient-1">
            <stop stop-color="#D4ECFF" offset="0%"></stop>
            <stop stop-color="#A2C8FF" offset="100%"></stop>
        </linearGradient>
    </defs>
    <g id="页面-1" stroke="none" stroke-width="1" fill="none" fill-rule="evenodd">
        <g id="首页大屏20210204" transform="translate(-125.000000, -62.000000)" fill="url(#linearGradient-1)">
            <g id="jifang-2-3" transform="translate(125.000000, 62.000000)">
                <g id="jifang-2-2">
                    <g id="jifang-2">
                        <path d="M15.8745662,6.18441283 C15.6286527,5.88936123 9.17268619,0.68023431 8.60338075,0.208401674 C8.27204463,-0.0662761506 7.70659972,-0.0545160391 7.37370153,0.208401674 C6.99188842,0.509991632 0.438627615,5.77454951 0.0943263598,6.20072524 C-0.159866109,6.51226778 0.118895397,6.91403068 0.700920502,6.91403068 L1.9141311,6.91403068 L1.9141311,14.1734338 C1.9141311,14.5505384 2.22567364,14.8619024 2.61087866,14.8619024 L7.02946722,14.8619024 L7.02946722,14.8617238 L8.93951464,14.8617238 L8.93951464,14.8619024 L13.3579247,14.8619024 C13.7431967,14.8619024 14.0547392,14.5505384 14.0547392,14.1734338 L14.0547392,6.91394142 L15.2598494,6.91394142 C15.7844351,6.91394142 16.1780084,6.5450265 15.8745662,6.18441283 Z M10.1089651,9.35709902 L6.93496234,12.79547 C6.91231241,12.8251939 6.87116318,12.8332943 6.83882845,12.8145718 C6.80658298,12.7957378 6.79341702,12.7558159 6.80805579,12.7214728 L7.48518828,9.21963738 L5.88773222,8.41559833 C5.85338912,8.39727755 5.83593863,8.35806974 5.84535565,8.32031241 L9.01917992,4.88203068 C9.03156485,4.84891492 9.06320781,4.82684519 9.09857741,4.82684519 C9.13388006,4.82684519 9.16561227,4.84891492 9.17790795,4.88203068 L8.5219749,8.43677545 L10.1089651,9.23019247 C10.1271743,9.24630404 10.1375509,9.26940028 10.1376402,9.29363459 C10.1375509,9.31795816 10.1271743,9.34105439 10.1089651,9.35709902 Z" id="Fill-1"></path>
                    </g>
                </g>
            </g>
        </g>
    </g>
</svg>