<?xml version="1.0" encoding="UTF-8"?>
<svg width="52px" height="46px" viewBox="0 0 52 46" version="1.1" xmlns="http://www.w3.org/2000/svg" xmlns:xlink="http://www.w3.org/1999/xlink">
    <!-- Generator: Sketch 56.3 (81716) - https://sketch.com -->
    <title>编组 2</title>
    <desc>Created with Sketch.</desc>
    <defs>
        <linearGradient x1="0%" y1="10.8727811%" x2="100%" y2="89.1272189%" id="linearGradient-1">
            <stop stop-color="#FF7E20" offset="0%"></stop>
            <stop stop-color="#FFCC5E" offset="100%"></stop>
        </linearGradient>
        <path d="M20.3157388,24.1549843 C19.9099368,24.2137051 19.5003828,24.2432364 19.090278,24.2436124 C14.0863043,24.2436124 11.1947111,19.4674054 14.2554545,14.0808851 C16.2846023,10.4933465 19.5696056,9 21.9407024,9 C24.1777596,9 25.5948482,10.3370085 24.3458083,12.5221186 C23.0369772,14.8100071 23.0650656,17.2063479 23.4058099,19.0018433 C21.5647444,19.6144124 20.2358796,21.3269877 20.2358796,23.3337138 C20.2381514,23.6125178 20.2641057,23.8855455 20.3145341,24.1538906 L20.3157388,24.1549843 Z M26.4853821,19.0274781 C27.5781458,16.3033878 29.7846362,14.8438108 32.145131,14.8438108 C34.3739614,14.8438108 36.7319778,16.148246 38.4251316,18.9061058 C41.6914781,24.251918 39.2523288,29.6441463 36.7450238,29.6441463 C36.0423312,29.6441463 35.3385716,29.2265384 34.749885,28.2418545 C33.3787843,25.9913245 31.2486765,24.8187888 29.4908437,24.2110391 C29.5473303,23.9274499 29.5778283,23.6346663 29.5778283,23.3337138 C29.5778283,21.3538188 28.2854165,19.6609993 26.4853821,19.0274781 Z M21.8408095,26.7741428 C22.6940987,27.5040509 23.783489,27.9046032 24.9097454,27.9023131 C26.0600628,27.9023131 27.1139639,27.49284 27.9293544,26.8173801 C31.548252,31.2600955 28.8399219,36.8903856 22.0617305,37 L21.8596384,37 C13.8700648,37 10.4344648,29.2836527 15.6394635,29.2102346 C18.3172611,29.1775246 20.4191428,27.9606579 21.8408095,26.773049 L21.8408095,26.7741428 Z M21.6646717,23.3325175 C21.6646717,22.1985708 22.2838562,21.1485012 23.2859866,20.5826557 C24.2917656,20.0151013 25.5242485,20.0151013 26.5299932,20.5826557 C27.5299893,21.1431349 28.15,22.1935122 28.153752,23.3337138 C28.153752,25.0895607 26.7015873,26.5105829 24.9109502,26.5105829 C23.1191427,26.5105829 21.6634669,25.0871681 21.6634669,23.3337138 L21.6646717,23.3325175 Z" id="path-2"></path>
        <filter x="-31.5%" y="-23.2%" width="163.0%" height="160.7%" filterUnits="objectBoundingBox" id="filter-3">
            <feOffset dx="0" dy="2" in="SourceAlpha" result="shadowOffsetOuter1"></feOffset>
            <feGaussianBlur stdDeviation="2.5" in="shadowOffsetOuter1" result="shadowBlurOuter1"></feGaussianBlur>
            <feColorMatrix values="0 0 0 0 0.796078431   0 0 0 0 0.388235294   0 0 0 0 0.0431372549  0 0 0 1 0" type="matrix" in="shadowBlurOuter1"></feColorMatrix>
        </filter>
    </defs>
    <g id="页面-1" stroke="none" stroke-width="1" fill="none" fill-rule="evenodd">
        <g id="首页大屏20210204" transform="translate(-1484.000000, -176.000000)">
            <g id="编组-23" transform="translate(1484.000000, 176.000000)">
                <g id="编组-2">
                    <rect id="矩形" fill="url(#linearGradient-1)" x="0" y="-7.10542736e-15" width="52" height="46" rx="4.95238095"></rect>
                    <g id="kongtiao">
                        <use fill="black" fill-opacity="1" filter="url(#filter-3)" xlink:href="#path-2"></use>
                        <use fill="#FFFFFF" fill-rule="evenodd" xlink:href="#path-2"></use>
                    </g>
                </g>
            </g>
        </g>
    </g>
</svg>