<?xml version="1.0" encoding="UTF-8"?>
<svg width="52px" height="46px" viewBox="0 0 52 46" version="1.1" xmlns="http://www.w3.org/2000/svg" xmlns:xlink="http://www.w3.org/1999/xlink">
    <!-- Generator: Sketch 56.3 (81716) - https://sketch.com -->
    <title>编组 24</title>
    <desc>Created with Sketch.</desc>
    <defs>
        <linearGradient x1="0%" y1="10.8727811%" x2="100%" y2="89.1272189%" id="linearGradient-1">
            <stop stop-color="#048AEE" offset="0%"></stop>
            <stop stop-color="#0DCEF8" offset="100%"></stop>
        </linearGradient>
        <filter x="-58.7%" y="-48.2%" width="217.4%" height="196.4%" filterUnits="objectBoundingBox" id="filter-2">
            <feOffset dx="0" dy="2" in="SourceAlpha" result="shadowOffsetOuter1"></feOffset>
            <feGaussianBlur stdDeviation="2.5" in="shadowOffsetOuter1" result="shadowBlurOuter1"></feGaussianBlur>
            <feColorMatrix values="0 0 0 0 0   0 0 0 0 0.377839907   0 0 0 0 0.664487092  0 0 0 1 0" type="matrix" in="shadowBlurOuter1" result="shadowMatrixOuter1"></feColorMatrix>
            <feMerge>
                <feMergeNode in="shadowMatrixOuter1"></feMergeNode>
                <feMergeNode in="SourceGraphic"></feMergeNode>
            </feMerge>
        </filter>
    </defs>
    <g id="页面-1" stroke="none" stroke-width="1" fill="none" fill-rule="evenodd">
        <g id="首页大屏20210204" transform="translate(-1484.000000, -253.000000)">
            <g id="编组-25" transform="translate(1484.000000, 253.000000)">
                <g id="编组-24">
                    <g id="编组-3">
                        <rect id="矩形备份-17" fill="url(#linearGradient-1)" x="0" y="-7.10542736e-15" width="52" height="46" rx="4.95238095"></rect>
                        <g id="kaimen" filter="url(#filter-2)" transform="translate(15.000000, 8.000000)" fill="#ffffff">
                            <path d="M17.9567073,24.8907366 C17.9364244,25.2235268 17.9234829,25.515922 17.900161,25.8070878 C17.7622439,27.5173415 16.6734195,28.3157854 15.0202585,27.8849268 C11.5327902,26.9764634 8.05105854,26.045839 4.56440976,25.1329707 C3.9316439,24.9671561 3.28139512,24.8682 2.65047317,24.696922 C1.06280488,24.2655512 0.0137268293,22.9331951 0.0101414634,21.2876146 C-0.0023902439,15.3865805 -0.00454146341,9.48527317 0.0106536585,3.58406829 C0.0158780488,1.54225366 1.53323902,0.0448682927 3.59110244,0.0387219512 C8.59821951,0.0240731707 13.6053024,0.0229804878 18.6122829,0.0392682927 C20.6584,0.0460634146 22.1629902,1.55891707 22.1676341,3.60967805 C22.1812585,9.48114146 22.1801659,15.3527073 22.1680439,21.2241366 C22.1639122,23.1735512 20.8551512,24.573961 18.8837122,24.8036293 C18.5934683,24.837639 18.3018927,24.8586049 17.9567073,24.8907366 Z M3.79970244,1.79954634 L3.77436585,2.00189756 C7.50833659,3.48979024 11.2433659,4.97433659 14.9756976,6.46598537 C17.0039561,7.27641463 18.0233951,8.76645854 18.0187171,10.9420927 C18.0140732,13.1479805 17.9768537,15.3537659 17.9652439,17.5596878 C17.9557854,19.3415463 17.9632293,21.1237122 17.9632293,22.8898293 C19.5267561,23.201961 20.403122,22.5050341 20.4046927,20.9901659 C20.4104293,15.2962634 20.4090976,9.60236098 20.4056488,3.9083561 C20.4049659,2.45525854 19.7393854,1.80139024 18.2648098,1.80060488 C13.7633659,1.79753171 9.26192195,1.79954634 4.76047805,1.79954634 L3.79970244,1.79954634 Z M11.0982439,14.9644293 L11.0914146,14.9644293 C11.0914146,15.8852878 11.0610244,16.8071366 11.108761,17.7256049 C11.1245024,18.0285171 11.3221756,18.5628732 11.4717024,18.5757805 C12.0301659,18.6226293 12.6429561,18.5904634 13.1454195,18.3769122 C13.2854537,18.3174293 13.1540927,17.5231171 13.0763073,17.078839 C13.0157659,16.7333463 12.7770146,16.4149659 12.7384634,16.0709756 C12.6793561,15.5434488 12.7085854,15.0032195 12.7299268,14.4694439 C12.7524634,13.906678 12.5969268,13.3371171 13.1622195,12.845478 C13.358561,12.6748829 13.2718634,11.7399902 13.0920488,11.6612829 C12.6170732,11.4526829 12.0137756,11.4608098 11.4763805,11.5190976 C11.3240537,11.5357951 11.1298293,12.0166439 11.1155561,12.2929902 C11.0691512,13.1810683 11.0982439,14.0736878 11.0982439,14.9644293 Z" id="Fill-1"></path>
                        </g>
                    </g>
                </g>
            </g>
        </g>
    </g>
</svg>