<?xml version="1.0" encoding="UTF-8"?>
<svg width="52px" height="46px" viewBox="0 0 52 46" version="1.1" xmlns="http://www.w3.org/2000/svg" xmlns:xlink="http://www.w3.org/1999/xlink">
    <!-- Generator: Sketch 56.3 (81716) - https://sketch.com -->
    <title>编组 4</title>
    <desc>Created with Sketch.</desc>
    <defs>
        <linearGradient x1="0%" y1="10.8727811%" x2="100%" y2="89.1272189%" id="linearGradient-1">
            <stop stop-color="#0668E8" offset="0%"></stop>
            <stop stop-color="#BD34FF" offset="100%"></stop>
        </linearGradient>
        <path d="M22.3615802,31.75 C20.4298166,31.75 20.5426193,30 20.5426193,29.1250171 C20.5426193,27.5117995 19.5670468,25.8334768 18.7236939,25.0584792 C17.1292359,23.6007677 16,21.244934 16,18.6199169 C16,15.994934 17.5304108,9 25.9977952,9 C34.4661396,9 36,16 36,18.6250171 C36,21.25 35.2268109,23.1837457 33.2720387,25.0584792 C31.7691172,26.492401 31.4282199,27.8391394 31.4538956,29.1250171 C31.4538956,30.2915012 31.7149208,31.7406553 29.6349703,31.75 C27.996202,31.75 24.5943407,31.7552372 22.3615802,31.75 Z M24.4095961,11.5037408 C21.7828442,11.8916333 18.8789932,14.2517457 18.8478764,17.8046993 C18.8337227,18.3926308 19.3840803,18.6609927 19.7959594,18.5959902 C20.1315936,18.5413252 20.4102575,18.2311002 20.436929,17.8790465 C20.4112177,18.1260147 20.4209261,16.9374523 20.7298888,16.1599218 C21.4783623,14.2457213 23.4499554,13.0101271 25.3141868,12.9153105 C25.5060438,12.9067531 25.6657883,12.8828264 25.7998215,12.8487335 C26.8411481,12.5821174 26.2889413,11.4523961 25.6835693,11.3994425 C25.3737887,11.3720244 24.957322,11.417379 24.4095961,11.5037408 Z M28.7259343,37 L23.2706162,37 C21.4525087,37 21.5093368,35.25 23.2706162,35.25 L28.7259343,35.25 C30.5165168,35.25 30.5165168,37 28.7259343,37 Z M22.3615802,34.375154 C20.5151299,34.375154 20.5426193,32.6250171 22.3615802,32.6250171 L29.6349703,32.6250171 C31.3971031,32.6250171 31.3971031,34.375154 29.6349703,34.375154 L22.3615802,34.375154 Z" id="path-2"></path>
        <filter x="-42.5%" y="-23.2%" width="185.0%" height="160.7%" filterUnits="objectBoundingBox" id="filter-3">
            <feOffset dx="0" dy="2" in="SourceAlpha" result="shadowOffsetOuter1"></feOffset>
            <feGaussianBlur stdDeviation="2.5" in="shadowOffsetOuter1" result="shadowBlurOuter1"></feGaussianBlur>
            <feColorMatrix values="0 0 0 0 0.258823529   0 0 0 0 0.168627451   0 0 0 0 0.792156863  0 0 0 1 0" type="matrix" in="shadowBlurOuter1"></feColorMatrix>
        </filter>
    </defs>
    <g id="页面-1" stroke="none" stroke-width="1" fill="none" fill-rule="evenodd">
        <g id="首页大屏20210204" transform="translate(-1484.000000, -330.000000)">
            <g id="编组-26" transform="translate(1484.000000, 330.000000)">
                <g id="编组-4">
                    <rect id="矩形备份-18" fill="url(#linearGradient-1)" x="0" y="0" width="52" height="46" rx="4.95238095"></rect>
                    <g id="light">
                        <use fill="black" fill-opacity="1" filter="url(#filter-3)" xlink:href="#path-2"></use>
                        <use fill="#FFFFFF" fill-rule="evenodd" xlink:href="#path-2"></use>
                    </g>
                </g>
            </g>
        </g>
    </g>
</svg>