<?xml version="1.0" standalone="no"?><!DOCTYPE svg PUBLIC "-//W3C//DTD SVG 1.1//EN" "http://www.w3.org/Graphics/SVG/1.1/DTD/svg11.dtd"><svg t="1614069822892" class="icon" viewBox="0 0 1140 1024" version="1.1" xmlns="http://www.w3.org/2000/svg" p-id="1877" width="17.8125" height="16" xmlns:xlink="http://www.w3.org/1999/xlink"><defs><style type="text/css"></style></defs><path d="M27.063025 538.50508a26.770065 26.770065 0 0 1-20.174542-9.311327 27.158037 27.158037 0 0 1 2.715803-38.797196L574.49146 6.595523a26.770065 26.770065 0 0 1 35.69342 0l521.822287 485.352922a26.770065 26.770065 0 0 1 0 38.797196 26.770065 26.770065 0 0 1-38.797196 0l-504.363548-468.282155-543.936688 469.446071a25.994121 25.994121 0 0 1-17.84671 6.595523z" fill="#678CC8" p-id="1878"></path><path d="M927.157972 1023.858002H216.781313a145.877457 145.877457 0 0 1-151.697036-138.505989V632.394295a25.994121 25.994121 0 0 1 9.699299-20.174542l433.364679-373.229026a27.546009 27.546009 0 0 1 17.84671-6.207551h129.582635a27.546009 27.546009 0 0 1 18.622654 7.371467l396.119371 372.841054a26.382093 26.382093 0 0 1 8.535383 19.398598v252.957718a145.489485 145.489485 0 0 1-151.697036 138.505989zM119.012379 644.809397v240.542616A91.949355 91.949355 0 0 0 216.781313 969.9299h710.376659a91.949355 91.949355 0 0 0 97.768934-84.577887v-240.930588l-379.824549-358.098119H535.694264z" fill="#678CC8" p-id="1879"></path><path d="M570.223769 802.326013a119.107392 119.107392 0 1 1 116.391588-119.107392 116.391588 116.391588 0 0 1-116.391588 119.107392z m0-184.286681a65.179289 65.179289 0 1 0 61.687541 65.179289 63.239429 63.239429 0 0 0-61.687541-65.179289z" fill="#678CC8" p-id="1880"></path></svg>